<svg xmlns="http://www.w3.org/2000/svg" viewBox="0 0 1000 600"><defs><style>.cls-1{fill:#562a0d;}</style></defs><title>playground</title><g id="Layer_2" data-name="Layer 2"><g id="Layer_1-2" data-name="Layer 1"><polygon class="cls-1" points="694.84 44.9 136.81 39.13 137.19 34.89 695.22 40.66 694.84 44.9"/><rect class="cls-1" x="758.69" y="73.46" width="100.11" height="13.96" transform="translate(889.19 -728.31) rotate(90)"/><rect class="cls-1" x="199.39" y="248.62" width="139.6" height="10.01"/><rect class="cls-1" x="815.73" y="381.26" width="139.6" height="10.01"/><polygon class="cls-1" points="816.08 387.06 467.29 391.02 467.07 384.98 815.86 381.01 816.08 387.06"/><rect class="cls-1" x="942.97" y="291.7" width="100.11" height="13.96" transform="translate(694.34 1291.7) rotate(-90)"/><polygon class="cls-1" points="897.22 275.15 339.34 270.19 339.86 265.14 897.74 270.1 897.22 275.15"/><rect class="cls-1" x="93.14" y="164.01" width="150.16" height="13.96" transform="translate(-2.77 339.22) rotate(-90)"/><rect class="cls-1" x="154.32" y="517.94" width="150.16" height="13.96" transform="translate(-295.51 754.32) rotate(-90)"/><rect class="cls-1" x="399.32" y="517.94" width="150.16" height="13.96" transform="translate(-50.52 999.32) rotate(-90)"/><polygon class="cls-1" points="680.06 135.61 680.04 135.46 295.71 138.49 296.1 141.36 673 138.38 673 141.51 782.92 141.51 782.92 135.61 680.06 135.61"/><polygon class="cls-1" points="138.94 10.13 0 8.38 0.67 0 139.61 1.75 138.94 10.13"/></g></g></svg>